<?xml version="1.0" standalone="no"?>
<!DOCTYPE svg PUBLIC "-//W3C//DTD SVG 20010904//EN"
 "http://www.w3.org/TR/2001/REC-SVG-20010904/DTD/svg10.dtd">
<svg version="1.0" xmlns="http://www.w3.org/2000/svg"
 width="700.000000pt" height="700.000000pt" viewBox="0 0 700.000000 700.000000"
 preserveAspectRatio="xMidYMid meet">
<metadata>
Created by potrace 1.14, written by Peter Selinger 2001-2017
</metadata>
<g transform="translate(0.000000,700.000000) scale(0.100000,-0.100000)"
fill="#000000" stroke="none">
<path d="M1499 6785 c-90 -28 -238 -211 -414 -510 -32 -55 -70 -120 -84 -145
-15 -25 -59 -108 -98 -185 -62 -123 -91 -183 -193 -409 -29 -65 -128 -309
-151 -371 -79 -221 -106 -301 -150 -447 -27 -92 -52 -177 -54 -189 -2 -12 -11
-45 -19 -73 -15 -54 -61 -257 -71 -316 -3 -19 -10 -53 -15 -75 -5 -22 -12 -65
-15 -95 -4 -30 -8 -57 -10 -60 -2 -3 -6 -34 -10 -70 -4 -36 -9 -73 -10 -83 -6
-31 -16 -169 -20 -288 -4 -111 -14 -228 -20 -240 -17 -28 -26 -389 -13 -504
27 -232 119 -488 261 -725 339 -565 994 -1097 1810 -1469 37 -17 70 -31 73
-31 3 0 29 -11 58 -24 207 -95 644 -222 857 -250 19 -3 50 -8 69 -11 89 -17
373 -12 495 9 17 3 50 8 75 11 68 9 317 71 438 109 165 52 311 109 512 198 94
42 366 180 381 194 8 8 19 14 24 14 24 0 429 265 549 359 209 164 408 346 531
485 279 316 453 631 534 968 29 119 35 184 36 348 0 152 -7 260 -24 348 -6 29
-13 119 -16 200 -3 81 -7 165 -9 187 -9 90 -19 181 -22 199 -2 11 -8 54 -14
95 -11 80 -13 89 -23 136 -3 17 -8 46 -11 66 -3 19 -15 75 -26 125 -12 49 -23
96 -25 104 -82 364 -249 842 -447 1280 -244 542 -564 1048 -711 1126 -86 46
-213 10 -391 -108 -159 -107 -449 -391 -617 -603 -93 -118 -114 -147 -176
-240 -45 -68 -136 -228 -149 -263 -1 -1 -60 20 -131 47 -174 66 -301 105 -398
125 -127 26 -182 26 -330 1 -64 -11 -260 -73 -385 -121 -63 -25 -121 -46 -128
-47 -8 -1 -32 33 -56 78 -23 44 -55 100 -71 125 -35 57 -160 234 -177 252 -7
7 -31 36 -53 63 -175 219 -445 479 -619 594 -82 54 -179 99 -241 110 -32 6
-59 11 -59 10 -1 0 -21 -7 -47 -14z"/>
</g>
</svg>
